<?xml version="1.0" encoding="UTF-8"?>
<svg id="Capa_1" xmlns="http://www.w3.org/2000/svg" version="1.1" viewBox="0 0 992.13 566.93">
  <!-- Generator: Adobe Illustrator 29.6.0, SVG Export Plug-In . SVG Version: 2.1.1 Build 207)  -->
  <defs>
    <style>
      .st0 {
        fill: #215f69;
      }
    </style>
  </defs>
  <path class="st0" d="M960.76,561.47H31.37c-6.6,0-12-5.4-12-12V17.46c0-6.6,5.4-12,12-12h929.39c6.6,0,12,5.4,12,12v532.01c0,6.6-5.4,12-12,12ZM590.8,463.78c142.49,7.97,281-146.48,365.71-250.11,40.85-43.85-4.98-62.78-31.89-24.91-66.76,81.71-217.23,243.14-312.89,235.17-46.83-10.96-43.85-75.73,2.99-183.35,11.96-27.9-13.95-43.84-48.83-28.9-37.87,15.94-101.64,81.71-148.47,120.57,34.88-103.63,61.78-259.08-17.93-259.08-138.51,0-248.12,335.81-304.92,404.57-12.96,15.94-11.96-5.98-11.96-11.96,4.98-89.68,105.62-290.97,129.54-371.68,13.95-43.85-45.84-69.75-88.68-19.93C66.66,141.92,12.85,344.2,23.81,447.83c2.99,35.87,13.95,92.67,56.8,92.67s82.71-93.67,112.6-158.44c7.97-11.96,134.52-276.02,189.33-257.09,34.87,26.9-35.88,195.31-113.6,312.89-22.92,35.87,2.99,58.79,49.83,39.86,36.87-22.92,50.82-45.84,77.72-69.75,52.81-50.82,124.56-101.64,119.58-91.68-33.88,74.74-14.95,142.5,74.74,147.48Z"/>
</svg>