<?xml version="1.0" encoding="UTF-8"?>
<svg id="Capa_1" xmlns="http://www.w3.org/2000/svg" version="1.1" viewBox="0 0 1133.86 283.46">
  <!-- Generator: Adobe Illustrator 29.6.0, SVG Export Plug-In . SVG Version: 2.1.1 Build 207)  -->
  <defs>
    <style>
      .st0 {
        fill: #215f69;
      }
    </style>
  </defs>
  <path class="st0" d="M323.03,234.35H29.66c-6.6,0-12-5.4-12-12V61.26c0-6.6,5.4-12,12-12h293.37c6.6,0,12,5.4,12,12v161.09c0,6.6-5.4,12-12,12ZM207.88,201.83c47.43,2.65,93.54-48.76,121.74-83.26,13.6-14.6-1.66-20.9-10.62-8.29-22.22,27.2-72.31,80.94-104.16,78.28-15.59-3.65-14.6-25.21.99-61.03,3.98-9.29-4.64-14.59-16.25-9.62-12.6,5.31-33.83,27.2-49.42,40.14,11.61-34.5,20.57-86.24-5.97-86.24-46.11,0-82.59,111.79-101.5,134.67-4.31,5.31-3.98-1.99-3.98-3.98,1.66-29.85,35.16-96.86,43.12-123.73,4.64-14.6-15.26-23.22-29.52-6.63-18.91,22.56-36.82,89.89-33.17,124.39.99,11.94,4.64,30.85,18.91,30.85s27.53-31.18,37.48-52.74c2.65-3.98,44.78-91.88,63.03-85.58,11.61,8.96-11.94,65.01-37.82,104.16-7.63,11.94,1,19.57,16.59,13.27,12.27-7.63,16.92-15.26,25.87-23.22,17.58-16.92,41.46-33.83,39.81-30.52-11.28,24.88-4.98,47.43,24.88,49.09Z"/>
  <g>
    <path class="st0" d="M605.16,113.03c9.15,0,17.6,2.26,25.35,6.77,7.75,4.52,13.88,10.65,18.39,18.39,4.51,7.75,6.77,16.2,6.77,25.35v64.24c-5.31,0-9.84-1.88-13.59-5.63-3.75-3.75-5.63-8.28-5.63-13.59v-60.58c0-8.66-3.05-16.04-9.15-22.15-6.1-6.1-13.48-9.15-22.15-9.15s-16.05,3.05-22.15,9.15c-6.1,6.1-9.15,13.48-9.15,22.15v12.54c.12,1.34.18,2.35.18,3.02v64.24c-5.31,0-9.84-1.88-13.59-5.63-3.75-3.75-5.63-8.28-5.63-13.59v-60.58c0-5.31-1.18-10.34-3.52-15.1-2.35-4.76-5.66-8.6-9.93-11.53-4.27-2.93-8.91-4.39-13.91-4.39-4.7,0-9.21,1.04-13.54,3.11-4.33,2.07-8.1,4.67-11.3,7.78-3.2,3.11-6.19,6.71-8.97,10.8-2.78,4.09-5,7.92-6.68,11.49-1.68,3.57-3.13,7.09-4.35,10.57-1.4,3.9-2.2,6.07-2.38,6.5l-1.37,3.48c-2.62,6.35-5.55,12.26-8.79,17.75-3.23,5.49-7.05,10.75-11.44,15.79-4.39,5.03-9.09,9.29-14.09,12.77-5,3.48-10.69,6.21-17.07,8.19-6.38,1.98-13.07,2.88-20.09,2.7-10.13-.3-19.26-1.98-27.41-5.03-8.14-3.05-14.86-7.15-20.13-12.31-5.28-5.15-9.32-11.15-12.13-17.98-2.81-6.83-4.21-14.21-4.21-22.15s1.51-15.18,4.53-22.28c3.02-7.11,7.08-13.22,12.17-18.35,5.09-5.12,11.16-9.2,18.21-12.22,7.05-3.02,14.41-4.53,22.1-4.53,10.19,0,19.31,2.58,27.36,7.73,8.05,5.16,14.24,12.08,18.58,20.77,4.33,8.69,6.5,18.32,6.5,28.87h-87.85c0,9.76,1.83,18.7,5.49,26.81,3.66,8.11,8.71,14.6,15.15,19.45,6.44,4.85,13.59,7.43,21.46,7.73,7.75.31,15.02-.67,21.83-2.93,6.8-2.26,12.89-5.63,18.26-10.11,5.37-4.48,10.14-9.56,14.32-15.24,4.18-5.67,7.98-12.08,11.39-19.22v-44.66c0-5.31,1.88-9.84,5.63-13.59,3.75-3.75,8.28-5.63,13.59-5.63v20.96c9.46-13.97,21.26-20.87,35.42-20.68,8.97.06,17.16,2.7,24.57,7.92s13.04,12,16.88,20.36c2.5-8.91,6.74-15.89,12.72-20.96,5.98-5.06,13.76-7.6,23.34-7.6ZM400.45,116.69c-6.1,0-11.79,2.21-17.07,6.64-5.28,4.42-9.53,10.48-12.77,18.17-3.23,7.69-5.03,16.14-5.4,25.35h66.07c-.43-9.52-1.86-18.01-4.3-25.49-2.44-7.47-5.96-13.45-10.57-17.94-4.61-4.48-9.93-6.73-15.97-6.73ZM484.73,169.04c.24-.49.49-1.08.73-1.78.24-.7.53-1.54.87-2.52.33-.98.62-1.8.87-2.47,1.4-4.21,3.08-8.66,5.03-13.36v59.67c0,5.31-1.88,9.84-5.63,13.59-3.75,3.75-8.28,5.63-13.59,5.63v-32.12c2.32-4.51,5.73-12.23,10.25-23.15l1.46-3.48Z"/>
    <path class="st0" d="M727.06,113.03c9.88,0,19.03,2.56,27.45,7.69,8.42,5.12,15.08,12.1,20,20.91,4.91,8.82,7.37,18.41,7.37,28.78s-2.46,19.97-7.37,28.78c-4.91,8.82-11.58,15.79-20,20.91-8.42,5.12-17.57,7.69-27.45,7.69-13.36,0-25.2-4.61-35.51-13.82v.92c0,5.31-1.88,9.84-5.63,13.59-3.75,3.75-8.28,5.63-13.59,5.63v-119.98c0-5.31,1.88-9.84,5.63-13.59,3.75-3.75,8.28-5.63,13.59-5.63v31.94c10.31-9.21,22.15-13.82,35.51-13.82ZM723.22,224.31c6.71,0,12.9-2.41,18.58-7.23,5.67-4.82,10.16-11.36,13.45-19.63,3.29-8.27,4.94-17.28,4.94-27.04s-1.65-18.76-4.94-27c-3.29-8.24-7.78-14.75-13.45-19.54-5.67-4.79-11.87-7.18-18.58-7.18s-12.78,2.38-18.39,7.14c-4.27,3.6-7.55,8.02-9.84,13.27-2.29,5.25-3.43,10.77-3.43,16.56v33.77c0,11.1,3.63,20.29,10.89,27.55,6.22,6.22,13.15,9.33,20.77,9.33Z"/>
    <path class="st0" d="M975.98,113.03c5.25.12,10.08.9,14.51,2.33,4.42,1.43,8.1,3.28,11.03,5.54,2.93,2.26,5.43,4.76,7.5,7.5,2.07,2.75,3.52,5.51,4.35,8.28.82,2.78,1.16,5.42,1.01,7.92-.15,2.5-.81,4.61-1.97,6.31-2.14,3.23-4.73,5.06-7.78,5.49-3.48.55-7.99-.88-13.54-4.3-.43-.24-1.04-.75-1.83-1.51-.79-.76-.95-1.24-.46-1.42.3-.12,1.04-.24,2.2-.37.92-.06,1.98-.3,3.2-.73,3.66-1.16,6.15-2.99,7.46-5.49,1.31-2.5,1.69-4.97,1.14-7.41-.37-1.71-1.16-3.54-2.38-5.49-1.22-1.95-2.91-3.97-5.08-6.04-2.17-2.07-5.08-3.77-8.74-5.08-3.66-1.31-7.69-1.94-12.08-1.88-4.7,0-9.21,1.05-13.54,3.16-4.33,2.1-8.08,4.73-11.26,7.87-3.17,3.14-6.16,6.77-8.97,10.89-2.81,4.12-5.05,7.96-6.73,11.53-1.68,3.57-3.13,7.09-4.35,10.57-1.4,3.9-2.2,6.07-2.38,6.5l-1.37,3.48c-2.62,6.35-5.55,12.26-8.79,17.75-3.23,5.49-7.05,10.75-11.44,15.79-4.39,5.03-9.09,9.29-14.09,12.77-5,3.48-10.69,6.21-17.07,8.19-6.38,1.98-13.07,2.88-20.09,2.7-10.13-.3-19.26-1.98-27.41-5.03-8.14-3.05-14.86-7.15-20.13-12.31-5.28-5.15-9.32-11.15-12.13-17.98-2.81-6.83-4.21-14.21-4.21-22.15s1.51-15.18,4.53-22.28c3.02-7.11,7.08-13.22,12.17-18.35,5.09-5.12,11.16-9.2,18.21-12.22,7.05-3.02,14.41-4.53,22.1-4.53,10.19,0,19.31,2.58,27.36,7.73,8.05,5.16,14.24,12.08,18.58,20.77,4.33,8.69,6.5,18.32,6.5,28.87h-87.85c0,9.76,1.83,18.7,5.49,26.81,3.66,8.11,8.71,14.58,15.15,19.4,6.44,4.82,13.59,7.38,21.46,7.69,7.75.31,15.02-.67,21.83-2.93,6.8-2.26,12.89-5.61,18.26-10.07,5.37-4.45,10.14-9.52,14.32-15.19,4.18-5.67,7.98-12.08,11.39-19.22v-44.66c0-5.31,1.88-9.84,5.63-13.59,3.75-3.75,8.28-5.63,13.59-5.63v21.23c9.88-14.46,22.11-21.54,36.7-21.23ZM847.5,116.6c-6.1,0-11.79,2.23-17.07,6.68-5.28,4.45-9.53,10.52-12.77,18.21-3.23,7.69-5.03,16.14-5.4,25.35h66.07c-.43-9.52-1.86-18.01-4.3-25.49-2.44-7.47-5.96-13.47-10.57-17.98-4.61-4.51-9.93-6.77-15.97-6.77ZM931.78,169.04c.24-.49.49-1.08.73-1.78.24-.7.53-1.54.87-2.52.34-.98.62-1.8.87-2.47,1.4-4.21,3.08-8.66,5.03-13.36v59.67c0,5.31-1.88,9.84-5.63,13.59-3.75,3.75-8.28,5.63-13.59,5.63v-32.12c2.32-4.51,5.73-12.23,10.25-23.15l1.46-3.48Z"/>
    <path class="st0" d="M1042.33,135.45c-.06,3.6,1.37,6.94,4.3,10.02,2.93,3.08,6.79,5.8,11.58,8.14,4.79,2.35,10.08,4.65,15.88,6.91,5.79,2.26,11.59,4.64,17.39,7.14,5.8,2.5,11.09,5.14,15.88,7.92,4.79,2.78,8.69,6.15,11.71,10.11,3.02,3.97,4.53,8.3,4.53,13,0,5.31-2.32,10.17-6.96,14.6-4.64,4.42-11.12,7.95-19.45,10.57-8.33,2.62-17.62,3.94-27.87,3.94h-2.2c-4.82,0-9.43-.52-13.82-1.56-4.39-1.04-8.22-2.43-11.49-4.16-3.26-1.74-6.24-3.71-8.92-5.9-2.69-2.2-4.85-4.5-6.5-6.91-1.65-2.41-2.91-4.81-3.8-7.18-.88-2.38-1.28-4.62-1.19-6.73.09-2.11.65-3.89,1.69-5.35,2.14-3.23,4.73-5.06,7.78-5.49,3.42-.55,7.9.88,13.45,4.3.43.24,1.04.75,1.83,1.51.79.76.95,1.24.46,1.42-.31.12-1.01.24-2.1.37-.92.06-1.98.31-3.2.73-3.66,1.16-6.15,2.99-7.46,5.49-1.31,2.5-1.69,4.97-1.14,7.41.37,1.77,1.36,3.66,2.97,5.67,1.62,2.01,3.83,4.01,6.64,5.99,2.81,1.98,6.5,3.63,11.07,4.94,4.58,1.31,9.58,2.03,15.01,2.15,6.83.12,12.81-.65,17.94-2.33,5.12-1.68,8.98-3.86,11.58-6.54,2.59-2.68,4.39-5.49,5.4-8.42,1.01-2.93,1.17-5.73.5-8.42-.61-2.62-2.64-5.25-6.08-7.87-3.45-2.62-7.66-5.08-12.63-7.37-4.97-2.29-10.37-4.61-16.2-6.95-5.83-2.35-11.58-4.79-17.25-7.32-5.67-2.53-10.83-5.12-15.47-7.78-4.64-2.65-8.34-5.64-11.12-8.97-2.78-3.32-4.07-6.76-3.89-10.3.37-8.18,5.54-15.07,15.51-20.68,9.97-5.61,22.65-8.42,38.02-8.42h2.29c4.82,0,9.43.52,13.82,1.56,4.39,1.04,8.25,2.41,11.58,4.12,3.32,1.71,6.36,3.66,9.11,5.86,2.75,2.2,4.96,4.52,6.64,6.96,1.68,2.44,2.97,4.84,3.89,7.18.91,2.35,1.34,4.58,1.28,6.68-.06,2.1-.61,3.89-1.65,5.35-2.14,3.29-4.73,5.16-7.78,5.58-3.42.55-7.9-.88-13.45-4.3-.43-.18-1.04-.69-1.83-1.51-.79-.82-.95-1.33-.46-1.51.06,0,.79-.09,2.2-.27.79-.06,1.83-.3,3.11-.73,3.66-1.16,6.13-2.97,7.41-5.45,1.28-2.47,1.68-4.96,1.19-7.46-.37-1.77-1.4-3.67-3.11-5.72-1.71-2.04-4-4.06-6.86-6.04-2.87-1.98-6.62-3.63-11.26-4.94-4.64-1.31-9.67-2-15.1-2.06-5.43-.06-10.69.72-15.79,2.33-5.09,1.62-9.29,3.92-12.58,6.91-3.29,2.99-4.97,6.25-5.03,9.79Z"/>
  </g>
</svg>